<?xml version="1.0" encoding="UTF-8"?>
<svg id="Layer_1" xmlns="http://www.w3.org/2000/svg" viewBox="0 0 41.53 41.53">
  <defs>
    <style>
      .cls-1 {
        fill: #fff;
      }
    </style>
  </defs>
  <g>
    <path class="cls-1" d="M19.02,14.37l.82-.72s.51.08,1.62,1c.17-.74.61-1.36,1.14-1.82-.91-.36-1.75-.83-3.37-1.87,0,0-1.9.05-2.88,1.15,0,0,.8,1.53,2.67,2.26Z"/>
    <path class="cls-1" d="M27.32,23l-2.84-1.98c-.69.58-1.76,1.38-3.22,2.15-2.77,1.45-1.47,3.78-2.47,4.33,0,0,.77.32,1.59.09,0,0-.05.96-1.86,1.33-1.82.37-2.04,1.61-2.04,2.61h5.22s-.73-2.07.64-3.12c.82-.63,2.64-.73,3.55-.48,0,0-1.55-2.36,1.44-4.93Z"/>
  </g>
  <path class="cls-1" d="M4.66,35.39c.36.18.41.52.37.72-.07.42-.35.68-.94.68h-1.07v-2.63h1.05c.5,0,.87.3.85.8,0,.12-.08.33-.27.43ZM4.08,35.19c.32,0,.33-.47,0-.47h-.39v.47h.39ZM4.08,36.21c.4,0,.39-.54,0-.54h-.39v.54h.39Z"/>
  <path class="cls-1" d="M6.08,35.96h-.12v.83h-.67v-2.63h1.05c.54,0,.96.25.98.86,0,.49-.2.76-.52.86l.72.9h-.83l-.61-.83ZM6.36,35.38c.42,0,.42-.6,0-.6h-.39v.6h.39Z"/>
  <path class="cls-1" d="M10.05,36.79h-.71l-.17-.53h-.7l-.16.53h-.71l.92-2.63h.61l.94,2.63ZM9,35.67l-.18-.77h-.02l-.19.77h.39Z"/>
  <path class="cls-1" d="M11.9,35.39c.36.18.41.52.37.72-.07.42-.35.68-.94.68h-1.07v-2.63h1.06c.5,0,.87.3.85.8,0,.12-.08.33-.27.43ZM11.31,35.19c.32,0,.33-.47,0-.47h-.39v.47h.39ZM11.31,36.21c.4,0,.39-.54,0-.54h-.39v.54h.39Z"/>
  <path class="cls-1" d="M14.75,36.79h-.71l-.17-.53h-.7l-.16.53h-.71l.92-2.63h.6l.94,2.63ZM13.71,35.67l-.18-.77h-.02l-.19.77h.39Z"/>
  <path class="cls-1" d="M14.96,34.16h.63l.64,1.12.22.53h.02s-.07-.46-.07-.46v-1.19h.66v2.63h-.67l-.59-1.04-.23-.53h-.02s.08.51.08.51v1.05h-.67v-2.63Z"/>
  <path class="cls-1" d="M18.73,34.79v2h-.67v-2h-.7v-.63h2.07v.63h-.7Z"/>
  <path class="cls-1" d="M20.02,35.96c.26.32.84.34.86.05,0-.15-.23-.23-.45-.26-.42-.07-.81-.33-.81-.84s.47-.79.95-.79c.32,0,.63.09.9.42l-.43.33c-.28-.29-.75-.28-.76.02,0,.12.15.2.35.24.47.08.94.25.91.9-.02.51-.56.79-1.04.79-.32,0-.65-.16-.9-.48l.42-.4Z"/>
  <path class="cls-1" d="M23.63,34.16c.53,0,1.02.27,1.02.88v.88c0,.61-.49.87-1.02.87h-.98v-2.63h.98ZM23.66,36.17c.23,0,.33-.11.33-.29v-.82c0-.17-.11-.28-.33-.28h-.34v1.38h.34Z"/>
  <path class="cls-1" d="M27.17,36.79h-.71l-.17-.53h-.7l-.16.53h-.71l.92-2.63h.61l.94,2.63ZM26.13,35.67l-.18-.77h-.02l-.19.77h.39Z"/>
  <path class="cls-1" d="M28.64,34.94c-.14-.35-.73-.27-.73.08v.9c0,.41.77.41.77,0v-.1h-.42v-.56h1.06v.66c0,.61-.51.91-1.03.91s-1.04-.31-1.04-.91v-.9c0-.59.52-.89,1.04-.89.34,0,.73.14.91.56l-.56.26Z"/>
  <path class="cls-1" d="M31.3,35.39c.36.18.41.52.37.72-.07.42-.35.68-.94.68h-1.07v-2.63h1.06c.5,0,.87.3.85.8,0,.12-.08.33-.27.43ZM30.72,35.19c.32,0,.33-.47,0-.47h-.39v.47h.39ZM30.72,36.21c.4,0,.39-.54,0-.54h-.39v.54h.39Z"/>
  <path class="cls-1" d="M31.94,34.16h.67v1.97h1.07v.66h-1.74v-2.63Z"/>
  <path class="cls-1" d="M36.29,36.79h-.71l-.17-.53h-.7l-.16.53h-.71l.92-2.63h.61l.94,2.63ZM35.25,35.67l-.18-.77h-.02l-.19.77h.39Z"/>
  <path class="cls-1" d="M37.49,34.16c.53,0,1.02.27,1.02.88v.88c0,.61-.49.87-1.02.87h-.99v-2.63h.99ZM37.51,36.17c.23,0,.33-.11.33-.29v-.82c0-.17-.11-.28-.33-.28h-.34v1.38h.34Z"/>
  <path class="cls-1" d="M11.4,11.38s3.09-.62,3.09-3.18-1.97-3.35-4.6-3.39c-1.61-.02-2.44.04-4.18.04-1.43,0-2.26,0-2.68-.01v.59c.7.03,1.25.19,1.48.64.17.34.28.87.28,5.81s-.11,5.49-.28,5.82c-.25.5-.71.64-1.48.66v.58c.26,0,.87-.02,2.24-.02,1.1,0,2.92.04,4.94.04,2.6,0,5.23-1.04,5.23-3.92,0-3.13-4.03-3.65-4.03-3.65ZM7.51,5.87s.47-.08,1.5-.08c1.5,0,2.67.61,2.67,2.6,0,1.82-.89,2.73-2.71,2.73-.57,0-1.48-.04-1.48-.04l.02-5.21ZM9.69,17.99c-1.57,0-2.16-.15-2.18-1.02-.02-1.08-.02-4.87-.02-4.87,0,0,1.02,0,1.7.02.99.04,3.18.45,3.18,2.9,0,2.27-1.1,2.98-2.69,2.98Z"/>
  <path class="cls-1" d="M9.74,18.69c-1.55,0-2.35.01-2.99.02-.39,0-.71.01-1.09.01-1.65,0-2.42-.01-2.64-.01v.71c.82,0,1.3.18,1.48.53.14.28.25.81.25,5.17s-.1,4.9-.25,5.17c-.21.4-.57.54-1.4.54h-.08v.71h.08s.38-.02,2.17-.02c.34,0,.62,0,.98.01.69,0,1.64.02,3.79.02,3.13,0,6.51-2.03,6.51-6.49,0-3.99-2.56-6.37-6.81-6.37ZM9.62,30.43c-1.71,0-2.24-.19-2.25-.83-.02-.98-.02-1.8-.02-4.5,0-2.1.01-4.76.02-5.26.25-.01,1-.04,1.84-.04,3.03,0,4.44,1.67,4.44,5.25s-1.36,5.38-4.03,5.38Z"/>
  <path class="cls-1" d="M35.35,13.35c1.5,1.58,3.62.14,3.62-1.6s-1.27-2.34-1.27-2.34c0,0,.32,1.48-1.04,1.21-.93-.18-2.45.49-1.89,1.86-4.6,1.03,3.63,6.38,2.2,7.85-.8.83-1.97.68-2.83.4-.26-.94-.96-1.9-2.35-2.66-1.47-.81-1.63-2.06-1.22-3.17,1.82-.1,2.45-1.45,2.45-1.45,0,0-1.27,0-1.55-2.02-.27-2.02.82-2.87.82-2.87-.48-.08-.83-.37-1-.91-.51-1.62-1.82-2.06-2.55-2.12,0-.7-.24-1.55-1.22-2,0,0,.14,1.08-.32,1.44,0,0-3.14-.78-3.76,1.18-.13.45-1.61.63-2.42,1.5,0,0,.32,1.28,1.59,2.22,0,0,1.55-1.74,3.18-.93,0,0,.4,1.59-2.78,1.5,0,0,.67.97,1.8,1.29,0,0-.01-1.05,2.12-.96,0,0,.12.84-1.64,1.48-1.37.5-3.65,2.06-2.74,4.71-1.15.38-2.64.81-4.37,1.15,0,0-1.91,1.2-1.06,3.33,0,0,1.75.45,3.57-.39l-.04-1.05s.31-.71,2.96-.4c1.3.15,2.38-.25,3.14-.93-.39.58-.92,1.15-1.61,1.76.85.69,1.93,1.43,3.32,2.39,0,0-1.17,1.25-1.17,3.54,0,0,.99,1.11,2.65,2.07,0,0,2.5-1.17,5.23-.72,0,0,.5.72-.86,1.21-1.36.5-1.91,1.48-1.91,2.61h4.91s-.94-1.79-.14-3.33c.47-.89.85-1.96.25-2.58-1.67.28-3.43.54-4.29.11,0,0-.04-.99.73-2.43.13-.25.24-.53.31-.82,3.9.76,5.34-1.71,4.18-3.92-1.26-2.41-4.88-4.61-2.97-5.22ZM24.92,6.85c-.36.08-.61-.05-.8-.07,0,0,.02-.32.6-.54.58-.22,1.06-.15,1.06-.15-.39.25-.43.68-.86.77Z"/>
</svg>