<?xml version="1.0" encoding="UTF-8"?>
<svg id="Layer_1" xmlns="http://www.w3.org/2000/svg" viewBox="0 0 41.53 41.53">
  <defs>
    <style>
      .cls-1 {
        fill: #fff;
      }
    </style>
  </defs>
  <path class="cls-1" d="M7.82,35.66c-.52.54-1.25.78-2.06.78h-2.82v-8.2h2.82c.81,0,1.55.24,2.06.78.88.92.79,2.05.79,3.28s.09,2.43-.79,3.35ZM6.75,30.18c-.26-.33-.62-.51-1.14-.51h-1.15v5.34h1.15c.53,0,.88-.17,1.14-.51.29-.37.33-.96.33-2.2s-.04-1.76-.33-2.13Z"/>
  <path class="cls-1" d="M10.72,33.91c0,.77.45,1.34,1.25,1.34.63,0,.93-.18,1.29-.56l.87.89c-.58.61-1.14.94-2.17.94-1.35,0-2.64-.65-2.64-3.07,0-1.96,1.01-3.06,2.49-3.06,1.59,0,2.49,1.22,2.49,2.87v.67h-3.58ZM12.76,32.24c-.15-.36-.47-.62-.96-.62s-.8.26-.95.62c-.09.22-.12.38-.13.65h2.17c-.01-.26-.04-.42-.13-.65Z"/>
  <path class="cls-1" d="M17.68,36.51c-1.19,0-2.09-.26-2.85-1.08l.99-1.04c.49.52,1.16.69,1.89.69.9,0,1.38-.36,1.38-1.01,0-.29-.08-.53-.24-.69-.15-.15-.33-.23-.69-.29l-.94-.14c-.67-.1-1.16-.32-1.51-.68-.37-.39-.56-.92-.56-1.61,0-1.46,1.03-2.49,2.72-2.49,1.08,0,1.85.28,2.53.95l-.97,1c-.5-.49-1.09-.56-1.6-.56-.81,0-1.21.47-1.21,1.04,0,.21.07.43.23.59.15.15.41.28.72.32l.92.14c.71.1,1.16.31,1.49.63.42.42.6,1.02.6,1.74,0,1.59-1.26,2.49-2.89,2.49Z"/>
  <path class="cls-1" d="M23.27,36.44c-1.16,0-1.66-.86-1.66-1.72v-2.97h-.6v-1.14h.6v-1.77h1.43v1.77h1.01v1.14h-1.01v2.88c0,.34.15.54.49.54h.52v1.27h-.78Z"/>
  <path class="cls-1" d="M26.05,33.91c0,.77.45,1.34,1.25,1.34.62,0,.93-.18,1.29-.56l.87.89c-.58.61-1.14.94-2.17.94-1.35,0-2.64-.65-2.64-3.07,0-1.96,1.01-3.06,2.49-3.06,1.59,0,2.49,1.22,2.49,2.87v.67h-3.58ZM28.01,32.24c-.15-.36-.47-.62-.96-.62s-.8.26-.95.62c-.09.22-.12.38-.13.65h2.17c0-.26-.04-.42-.13-.65Z"/>
  <path class="cls-1" d="M37.16,36.44v-3.63c0-.82-.49-1.09-.94-1.09s-.96.28-.96,1.06v3.66h-1.42v-3.63c0-.82-.5-1.09-.95-1.09s-.95.28-.95,1.09v3.63h-1.43v-6h1.39v.55c.37-.4.9-.62,1.43-.62.64,0,1.15.24,1.51.76.48-.53,1-.76,1.71-.76.57,0,1.08.19,1.4.53.46.48.63,1.05.63,1.7v3.83h-1.43Z"/>
  <path class="cls-1" d="M2.93,5.02h9.76c2.13,0,3.74.47,4.83,1.42,1.17,1.02,1.75,2.33,1.75,3.94,0,2.07-1.11,3.45-3.33,4.13v.11c1.33.31,2.35.91,3.06,1.79.71.88,1.07,1.96,1.07,3.23,0,1-.18,1.87-.53,2.61-.35.74-.85,1.37-1.5,1.89-1.24,1.02-2.94,1.52-5.1,1.52H2.93V5.02ZM12.03,13.31c.81,0,1.47-.19,1.96-.57.49-.38.73-.96.73-1.73s-.23-1.34-.71-1.73c-.47-.4-1.11-.6-1.93-.6h-4.47v4.63h4.41ZM12.44,21.94c.93,0,1.66-.25,2.19-.75.5-.46.75-1.09.75-1.89,0-.91-.29-1.58-.86-2.03-.57-.44-1.29-.67-2.16-.67h-4.74v5.33h4.83Z"/>
  <g>
    <polygon class="cls-1" points="21.17 5.06 21.17 25.66 25.5 25.66 25.5 12.61 21.17 5.06"/>
    <polygon class="cls-1" points="34.26 5.02 34.26 18.88 26.33 5.02 26 5.02 21.75 5.02 33.57 25.66 33.74 25.66 38.15 25.66 38.59 25.66 38.59 5.02 34.26 5.02"/>
  </g>
</svg>