<?xml version="1.0" encoding="UTF-8"?>
<svg id="Layer_1" xmlns="http://www.w3.org/2000/svg" viewBox="0 0 41.53 41.53">
  <defs>
    <style>
      .cls-1 {
        fill: #fff;
      }
    </style>
  </defs>
  <g>
    <path class="cls-1" d="M20.59,12.2c-.27-.21-.61-.51-.95-.86,0,0-3.36,1.27-3.79,5.32,0,0,1.2-.27,1.77-1.08,0,0,.2-1.5,1.67-2.53,0,0,.18.33.5.66.26-.63.55-1.13.8-1.51Z"/>
    <path class="cls-1" d="M28.62,25.02h0c-.16-.75-.32-1.79-.17-2.76-.69-.83-1.35-1.68-3.13-2.47l-.05,1.11c-.05,1.18-.45,2.17-.9,2.93,0,0,.84,2.31,2.69,3.95,0,0-3.13,1.95-3.56,3.65,0,0,1.24.29,2.13-.08,0,0,.79-1.8,3.21-3.29,0,0-2.06-2.72-.22-3.05Z"/>
    <path class="cls-1" d="M35.99,26.48c0-.39.03-.82.03-1.26.82.37,1.25-.53,1.25-.53-.91.24-1.37-1.11-1.37-1.11-.1-.49-.37-.95-.37-.95-.81-1.17-1.61-1.09-2.17-1.17,0,0,.28-1.17-.18-2.49,3.58,2.45,5.04-1.03,5.04-1.03-1.46.5-3.19-.47-3.48-1.89-.29-1.42.29-2.59.69-3.29.4-.71.88-1.36.81-2.06-.05-.52-.31-1.55-.69-1.83-.71-.41-1.55.37-2.46.58-1.24.32-.88-.91-.88-.91-.07.04-.45.31-.84.78-.14.17-.31.4-.48.64.14-.05.32-.09.55-.1.37-.02,1.34-.03,1.45.48.09.44-.79,1.37-.92,2.22-.15-.31-.42-.55-.75-.67l.1-.52.51.09.08-.41-.51-.09.1-.5-.42-.08-.1.5-.51-.09-.08.41.51.09-.1.52c-.64-.02-1.22.42-1.34,1.06-.14.71.34,1.39,1.06,1.52.21.04.42.03.62-.03-.23.12-.49.19-.77.19-.9,0-1.58-.64-1.58-1.66,0-1.17,1.13-1.48,1.33-2.64h0s.96-6.25.96-6.25l-.17-1.6-.66,1.51-.86,4.51c-.38-2.87-2.31-3.56-2.31-3.56,0,0,.12-.97-.11-1.78,0,0-.21.87-.97,1.06,0,0-.65-.75-1.92-1.02,0,0,.93.89.31,1.58-.34.39-.93,1.1-1.88,2.18-.95,1.08-1.69,2.56-1.69,2.56,0,0,.52.46.82.78,0,0,.74-.99,1.45-.64,0,0-.56.58-1.1.8.41.22.86.15.86.15.69-.93,2.23-1.65,2.23-1.65.9-.44,1.29-1.15,1.19-1.88v.04s.3.81-.46,1.75c0,0,0,0-.01,0-.07.07-.13.15-.2.23-.16.17-.37.32-.6.5-1.1.89-1.79,1.89-2.15,2.93-.31-.26-.71-.6-1.04-.91,0,0-2.46,2.04-2.46,7.23,0,0,1.65-.04,1.57-1.47,0,0-.38-1.97,1.15-3.75,0,0,.19.15.42.38.67.53,1.33,1.37,3.33,1.82,0,0-1.02.28-3.13-.7,0,0,.09,2.42,3.79,4.39,0,0,.53.26,1.32,1,.56.52.73,1.31.73,1.31,0,0,.2-.76.6-1.38.4-.63.86-.94.86-.94-1.27,1.42-2.15,5.35,1.14,8.83,0,0,.13,2.36-1.53,4.24,0,0,1.08.52,2.19,0,0,0,.23-2.49,1.06-4.29,0,0-.89-1.18-.99-2.72,0,0,1.06-1.02,1.41-3.12.47.15,1.01.46,1.13,1.3.17,1.14-1.29,3.11-.15,5.29.29.55.88,1.05,1.83,1.15,1.73.2,2.46-1.9,2.46-1.9-1.96.97-2.61-.9-2.59-1.68Z"/>
    <path class="cls-1" d="M32.04,6.05c-.07.24-.12.5-.13.76-.05,1.09.48,1.9,1.36,1.94.63.03,1.19-.41,1.48-1.06l.49.12s.01-.56-.08-.84c-.2-.61-.27-.74-.27-.74h0s-.03-.1-.05-.15c-.27-.92.25-1.55.25-1.55l-1.32.27-.52-.8-.61.76-.82-.51s.4.73.23,1.79Z"/>
  </g>
  <g>
    <path class="cls-1" d="M4.2,34.97c.57,0,1.1.29,1.1.95v.95c0,.65-.53.93-1.1.93h-1.06v-2.83h1.06ZM4.22,37.12c.24,0,.36-.12.36-.31v-.88c0-.18-.12-.3-.36-.3h-.37v1.49h.37Z"/>
    <path class="cls-1" d="M6.44,36.08h1.15v.62h-1.15v.42h1.25v.68h-1.97v-2.83h1.97v.67h-1.25v.44Z"/>
    <path class="cls-1" d="M10.31,35.81c-.16-.38-.79-.29-.79.08v.97c0,.44.83.44.83,0v-.1h-.45v-.6h1.14v.7c0,.65-.54.98-1.11.98s-1.12-.33-1.12-.98v-.97c0-.64.56-.96,1.12-.96.37,0,.79.15.98.6l-.6.28Z"/>
    <path class="cls-1" d="M12.13,36.08h1.15v.62h-1.15v.42h1.25v.68h-1.97v-2.83h1.97v.67h-1.25v.44Z"/>
    <path class="cls-1" d="M13.76,34.97h.72v2.12h1.15v.71h-1.87v-2.83Z"/>
    <path class="cls-1" d="M17.01,34.97c.57,0,1.1.29,1.1.95v.95c0,.65-.53.93-1.1.93h-1.06v-2.83h1.06ZM17.04,37.12c.24,0,.36-.12.36-.31v-.88c0-.18-.12-.3-.36-.3h-.36v1.49h.36Z"/>
    <path class="cls-1" d="M19.21,36.08h1.15v.62h-1.15v.42h1.25v.68h-1.97v-2.83h1.97v.67h-1.25v.44Z"/>
    <path class="cls-1" d="M21.73,36.9h-.13v.9h-.72v-2.83h1.13c.58,0,1.04.27,1.05.93,0,.52-.21.82-.56.93l.77.97h-.89l-.66-.9ZM22.02,36.28c.45,0,.45-.65,0-.65h-.42v.65h.42Z"/>
    <path class="cls-1" d="M23.5,34.97h.72v2.12h1.15v.71h-1.87v-2.83Z"/>
    <path class="cls-1" d="M28.18,37.79h-.77l-.18-.57h-.75l-.18.57h-.77l.99-2.83h.65l1.01,2.83ZM27.06,36.59l-.19-.83h-.02l-.21.83h.42Z"/>
    <path class="cls-1" d="M28.37,34.97h.68l.68,1.21.24.57h.02s-.08-.49-.08-.49v-1.28h.71v2.83h-.72l-.64-1.11-.25-.57h-.02s.09.55.09.55v1.13h-.71v-2.83Z"/>
    <path class="cls-1" d="M32.12,34.97c.57,0,1.1.29,1.1.95v.95c0,.65-.53.93-1.1.93h-1.06v-2.83h1.06ZM32.15,37.12c.24,0,.36-.12.36-.31v-.88c0-.18-.12-.3-.36-.3h-.36v1.49h.36Z"/>
    <path class="cls-1" d="M34.37,36.08h1.15v.62h-1.15v.42h1.25v.68h-1.97v-2.83h1.97v.67h-1.25v.44Z"/>
    <path class="cls-1" d="M36.85,36.9h-.13v.9h-.72v-2.83h1.13c.58,0,1.04.27,1.05.93,0,.52-.21.82-.56.93l.77.97h-.89l-.66-.9ZM37.14,36.28c.45,0,.45-.65,0-.65h-.42v.65h.42Z"/>
  </g>
  <g>
    <path class="cls-1" d="M11.22,9.57v3.9c0,.31-.02.59-.12.88-.21.69-.71,1.1-1.56,1.1-1.31,0-2.1-1.4-2.1-3.87,0-2.79.92-4.1,2.19-4.1.73,0,1.19.4,1.42.94.16.33.16.77.16,1.13ZM11.22,15.48v.81l.06.13h3.65v-.54c-1.15-.21-1.25-.21-1.25-1.02V3.23l-.14-.15-3.46.5v.54l.69.13c.33.06.42.15.42.9l.02,1.88c-.44-.15-.98-.23-1.58-.23-1.48,0-2.69.46-3.48,1.27-.83.87-1.35,2.12-1.35,3.83,0,2.83,1.37,4.77,3.75,4.77.77,0,1.69-.4,2.66-1.19Z"/>
    <path class="cls-1" d="M5.59,31.44c-1.49-1.07-2.6-3.1-2.6-6.14,0-1.77.37-3.65,1.48-5.16,1.09-1.46,2.95-2.56,5.99-2.56,1.55,0,3.26.26,4.46.92v3.71h-.72c-.52-2.14-1.64-3.83-3.76-3.83-3.45,0-4.26,3.93-4.26,6.54,0,2.01.44,6.91,4.24,6.91.64,0,1.05-.04,1.4-.2.31-.13.44-.33.44-.88v-3.32c0-.98-.24-.96-2.16-1.11v-.63h6.27v.61c-1.09.17-1.25.2-1.25,1.16v4.22c-1.38.59-3.28.98-4.74.98s-3.3-.15-4.79-1.23Z"/>
  </g>
</svg>