<?xml version="1.0" encoding="UTF-8"?>
<svg id="Layer_1" xmlns="http://www.w3.org/2000/svg" viewBox="0 0 41.53 41.53">
  <defs>
    <style>
      .cls-1 {
        fill: #fff;
      }
    </style>
  </defs>
  <g>
    <path class="cls-1" d="M4.19,33.19c.9,0,1.74.45,1.74,1.49v1.63c0,1.03-.84,1.46-1.74,1.46h-1.68v-4.58h1.68ZM4.19,36.81c.41,0,.79-.14.79-.5v-1.63c0-.37-.37-.53-.79-.53h-.73v2.66h.73Z"/>
    <path class="cls-1" d="M7.58,35.01h1.97v.93h-1.97v.9h2.14v.92h-3.1v-4.58h3.1v.93h-2.14v.9Z"/>
    <path class="cls-1" d="M12.11,36.41c.41.66,1.61.67,1.65.03.02-.4-.41-.49-.88-.55-.72-.11-1.46-.45-1.45-1.45.05-.87.85-1.32,1.67-1.32.59,0,1.16.23,1.54.81l-.78.52c-.19-.3-.47-.43-.76-.43-.36,0-.68.14-.7.45h0c0,.38.39.43.79.51.79.15,1.57.44,1.53,1.52-.08.86-.9,1.33-1.74,1.33-.59,0-1.2-.29-1.59-.87l.72-.55Z"/>
    <path class="cls-1" d="M17.26,34.14v3.63h-.96v-3.63h-1.31v-.96h3.58v.96h-1.31Z"/>
    <path class="cls-1" d="M20.03,35.01h1.97v.93h-1.97v.9h2.15v.92h-3.1v-4.58h3.1v.93h-2.15v.9Z"/>
    <path class="cls-1" d="M25.61,36.5c-.05-.3-.13-.87-.14-.97v-2.34h.95v4.58h-1.01l-1.4-2.41-.28-.62h-.07s.12.79.12.79v2.23h-.96v-4.58h.94l1.45,2.5.32.83h.06Z"/>
    <path class="cls-1" d="M29.19,34.14v3.63h-.96v-3.63h-1.31v-.96h3.58v.96h-1.31Z"/>
    <path class="cls-1" d="M30.83,34.65c0-1.02.94-1.53,1.87-1.53.94,0,1.87.51,1.87,1.53v1.66c0,1.01-.94,1.52-1.87,1.52s-1.87-.51-1.87-1.52v-1.66ZM31.78,36.31c0,.39.46.57.93.57.47,0,.92-.2.92-.57v-1.66c0-.39-.47-.59-.93-.58-.46,0-.92.2-.92.58v1.66Z"/>
    <path class="cls-1" d="M36.55,36.09h-.33v1.68h-.96v-4.58h1.8c.92,0,1.61.42,1.63,1.46,0,.84-.38,1.25-1.04,1.38l1.36,1.74h-1.17l-1.3-1.68ZM37.06,35.22c.42,0,.68-.17.68-.57s-.28-.52-.68-.51h-.85v1.08h.85Z"/>
  </g>
  <path class="cls-1" d="M24.59,10.15c0-2.63,1.85-3.37,3.84-3.37,3,0,6.19,2.32,6.71,6.41h3.15V3.45h-2.84l-.62,1.97c-1.95-1.42-4.18-2.27-6.51-2.27-4.73,0-9.83,1.75-9.83,8.22,0,11.23,14.84,6.7,14.84,12.29,0,2.23-2.87,3.37-4.72,3.37-4.04,0-7.19-3.33-7.42-6.58v-2.08c-1.94-1.33-3.37-3.44-3.37-7,0-3.84,1.77-6.57,5-7.92h-10.44v3.13h1.03c1.08,0,1.34.59,1.34,1.68v5.16c-.76-.8-1.39-1.34-1.91-1.66-.85-.52-1.8-.79-2.87-.79-2.14,0-4,.92-5.54,2.78-1.52,1.86-2.29,4.38-2.29,7.59,0,2.86.74,5.14,2.21,6.82,1.46,1.68,3.22,2.52,5.2,2.52,1.18,0,2.26-.31,3.27-.91.57-.35,1.22-.9,1.93-1.59v2h6.44v-1.5c1.37.88,3.82,2,7.42,2,4.91,0,10.8-2.11,10.8-8.37,0-11.17-14.82-7.21-14.82-12.14ZM14.74,25.37c-.39.51-.76.98-1.01,1.22-.71.72-1.5,1.08-2.37,1.08-1.4,0-2.35-.87-2.84-2.6-.26-.96-.39-2.37-.39-4.26,0-1.76.13-3.13.41-4.1.51-1.81,1.53-2.7,2.96-2.7.98,0,1.77.29,2.37.87.2.19.52.56.86.97v9.54Z"/>
</svg>