<?xml version="1.0" encoding="UTF-8"?>
<svg id="Layer_1" xmlns="http://www.w3.org/2000/svg" viewBox="0 0 41.53 41.53">
  <defs>
    <style>
      .cls-1 {
        fill: #fff;
      }
    </style>
  </defs>
  <g>
    <g>
      <polygon class="cls-1" points="8.34 7.68 2.37 7.68 2.37 29.51 17.75 29.51 17.75 24.77 8.34 24.77 8.34 17.93 17.75 17.93 17.75 13.19 8.34 13.19 8.34 7.68"/>
      <polygon class="cls-1" points="2.37 2.37 2.37 7.11 8.34 7.11 17.75 7.11 17.75 2.37 2.37 2.37"/>
    </g>
    <path class="cls-1" d="M26.63,2.37c2.06,0,3.93.33,5.54.99,1.6.65,2.97,1.58,4.07,2.76,1.1,1.18,1.95,2.6,2.53,4.23.58,1.64.88,3.47.88,5.43v.08c0,1.97-.3,3.81-.89,5.48-.59,1.66-1.45,3.11-2.57,4.31-1.11,1.2-2.5,2.16-4.12,2.84-1.63.68-3.5,1.03-5.57,1.03h-7.54V2.37h7.68M24.77,23.41h1.96c2.07,0,3.76-.65,5.03-1.95,1.27-1.29,1.91-3.14,1.91-5.49v-.08c0-2.32-.64-4.16-1.91-5.46-1.27-1.3-2.97-1.96-5.03-1.96h-1.96v14.94"/>
  </g>
  <g>
    <path class="cls-1" d="M3,35.29h1v.54h-1v.37h1.09v.59h-1.72v-2.47h1.72v.59h-1.09v.38Z"/>
    <path class="cls-1" d="M5.08,36.79h-.62v-2.47h.62v2.47Z"/>
    <path class="cls-1" d="M5.51,34.32h.59l.6,1.05.21.5h.02s-.07-.43-.07-.43v-1.12h.62v2.47h-.63l-.56-.98-.22-.49h-.02s.08.48.08.48v.99h-.63v-2.47Z"/>
    <path class="cls-1" d="M8.82,34.32c.5,0,.96.25.96.83v.83c0,.57-.46.82-.96.81h-.93v-2.47h.93ZM8.85,36.2c.21,0,.31-.11.31-.27v-.77c0-.16-.1-.26-.31-.26h-.32v1.3h.32Z"/>
    <path class="cls-1" d="M10.78,36.79h-.63v-2.47h.63v.94h.71v-.94h.63v2.47h-.63v-.93h-.71v.93Z"/>
    <path class="cls-1" d="M12.42,35.13c0-.57.51-.85,1.02-.85s1.03.28,1.03.85v.84c0,.57-.51.85-1.02.85s-1.03-.28-1.03-.85v-.84ZM13.04,35.98c0,.18.2.27.4.27s.4-.09.4-.27v-.84c0-.19-.21-.28-.41-.28s-.39.1-.39.28v.84Z"/>
    <path class="cls-1" d="M16.22,34.31h.67l-.89,2.47h-.57l-.89-2.47h.67l.39,1.21.11.58h.01l.11-.58.39-1.21Z"/>
    <path class="cls-1" d="M17.71,35.29h1v.54h-1v.37h1.09v.59h-1.72v-2.47h1.72v.59h-1.09v.38Z"/>
    <path class="cls-1" d="M19.17,34.32h.59l.6,1.05.21.5h.02s-.07-.43-.07-.43v-1.12h.62v2.47h-.63l-.56-.98-.22-.49h-.02s.08.48.08.48v.99h-.63v-2.47Z"/>
    <path class="cls-1" d="M21.84,36.01c.25.3.79.31.81.05,0-.14-.22-.22-.42-.25-.4-.06-.76-.31-.76-.79s.44-.74.89-.74c.3,0,.59.08.85.39l-.41.31c-.26-.28-.7-.26-.71.02,0,.12.14.19.33.23.44.08.88.23.85.84-.02.48-.52.74-.98.74-.3,0-.61-.15-.84-.45l.4-.37Z"/>
    <path class="cls-1" d="M25.15,34.32c.5,0,.96.25.96.83v.83c0,.57-.47.82-.96.81h-.93v-2.47h.93ZM25.17,36.2c.21,0,.31-.11.31-.27v-.77c0-.16-.1-.26-.31-.26h-.32v1.3h.32Z"/>
    <path class="cls-1" d="M28.51,36.79h-.67l-.16-.5h-.66l-.15.5h-.67l.86-2.47h.57l.88,2.47ZM27.53,35.74l-.17-.72h-.02l-.18.72h.37Z"/>
    <path class="cls-1" d="M29.85,35.05c-.14-.33-.69-.25-.69.07v.85c0,.39.72.38.72,0v-.09h-.39v-.52h1v.62c0,.57-.48.86-.97.86s-.98-.29-.98-.86v-.85c0-.56.49-.84.98-.84.32,0,.69.13.86.53l-.52.24Z"/>
    <path class="cls-1" d="M32.35,35.48c.34.17.38.49.35.68-.06.4-.33.64-.88.64h-1.01v-2.47h.99c.47,0,.82.28.8.75,0,.11-.08.31-.25.4ZM31.8,35.29c.3,0,.31-.44,0-.44h-.36v.44h.36ZM31.8,36.24c.38,0,.37-.51,0-.51h-.36v.51h.36Z"/>
    <path class="cls-1" d="M32.95,34.32h.63v1.85h1.01v.62h-1.63v-2.47Z"/>
    <path class="cls-1" d="M37.08,36.79h-.67l-.16-.5h-.66l-.15.5h-.67l.86-2.47h.57l.88,2.47ZM36.1,35.74l-.17-.72h-.02l-.18.72h.37Z"/>
    <path class="cls-1" d="M38.2,34.32c.5,0,.96.25.96.83v.83c0,.57-.46.82-.96.81h-.93v-2.47h.93ZM38.22,36.2c.21,0,.31-.11.31-.27v-.77c0-.16-.1-.26-.31-.26h-.32v1.3h.32Z"/>
  </g>
</svg>