<svg class="brand-logo" version="1.1" viewBox="0 0 100 100" xmlns="http://www.w3.org/2000/svg" xmlns:xlink="http://www.w3.org/1999/xlink">
<title>De Gelderlander logo</title>
<rect class="has-color-on-default has-color-on-reversed" fill="#D10A10" fill-rule="nonzero" height="100" width="100" x="0" y="0"></rect>
<path class="has-white-on-default has-white-on-reversed" d="M25.6743,50.4649 C29.298,50.4649 33.2728,51.0823 36.0813,52.6157 L36.0813,61.3197 L34.3964,61.3197 C33.1727,56.3038 30.5721,52.36 25.623,52.36 C17.5695,52.36 15.682,61.5754 15.682,67.6692 C15.682,72.3804 16.703,83.8468 25.5738,83.8468 C27.0563,83.8468 28.0227,83.7469 28.8393,83.3876 C29.5548,83.0811 29.858,82.6178 29.858,81.3376 L29.858,73.5555 C29.858,71.2519 29.298,71.3048 24.8105,70.9461 L24.8105,69.4601 L39.4446,69.4601 L39.4446,70.8929 C36.8976,71.3048 36.5394,71.3559 36.5394,73.6104 L36.5394,83.4912 C33.3262,84.8729 28.8889,85.7955 25.474,85.7955 C22.0567,85.7955 17.7726,85.4365 14.3064,82.927 C10.8396,80.4195 8.23828,75.6566 8.23828,68.5393 C8.23828,64.391 9.1055,59.9898 11.7051,56.4551 C14.2524,53.0252 18.5885,50.4649 25.6743,50.4649 Z M73.8341,14.2046 L74.2194,17.9908 C74.2194,17.9908 71.976,32.7359 71.976,32.739 C71.5022,35.4817 68.8629,36.2068 68.8629,38.9772 C68.8629,41.3924 70.45,42.9059 72.551,42.9059 C73.2056,42.9059 73.817,42.7417 74.348,42.4543 C73.8941,42.585 73.4039,42.6168 72.9078,42.5249 C71.2192,42.2126 70.1045,40.601 70.4243,38.9274 C70.7107,37.4215 72.0621,36.3904 73.5631,36.4305 L73.5631,36.4305 L73.796,35.2016 L72.6052,34.9834 L72.7877,34.0173 L73.9796,34.2404 L74.2026,33.063 L75.1752,33.2435 L74.9491,34.4205 L76.1403,34.6428 L75.9574,35.6051 L74.7656,35.3835 L74.5333,36.6093 C75.3289,36.8932 75.955,37.4744 76.3008,38.1981 C76.5993,36.1736 78.6574,34.0014 78.4423,32.9544 C78.1932,31.7442 75.8998,31.7788 75.0465,31.8182 C74.5028,31.8448 74.1003,31.9382 73.7607,32.054 C74.1514,31.4997 74.558,30.943 74.8743,30.5526 C75.7742,29.4486 76.6827,28.8102 76.8364,28.7217 C76.8364,28.7217 75.9999,31.6328 78.9099,30.8763 C81.0438,30.396 83.0244,28.5416 84.678,29.5156 C85.5721,30.184 86.1773,32.6007 86.2974,33.8368 C86.4589,35.5076 85.3378,37.0401 84.3988,38.7102 C83.4584,40.3776 82.0895,43.1286 82.7805,46.4861 C83.4708,49.8422 87.5211,52.1264 90.9368,50.9522 C90.9368,50.9522 87.5211,59.1717 79.1295,53.3827 C80.206,56.505 79.5467,59.2699 79.5467,59.2699 C80.8579,59.4615 82.7349,59.2699 84.6231,62.0385 C84.6231,62.0385 85.2561,63.1143 85.486,64.2775 C85.486,64.2775 86.5602,67.4797 88.69,66.903 C88.69,66.903 87.6817,69.0226 85.767,68.1592 C85.7604,69.1975 85.7165,70.2176 85.6911,71.1367 C85.6407,72.9824 87.1712,77.4008 91.7619,75.11 C91.7619,75.11 90.0434,80.0526 85.9934,79.5899 C83.7668,79.3382 82.3829,78.1778 81.6998,76.8697 C79.0283,71.7373 82.4384,67.081 82.046,64.3971 C81.7595,62.4175 80.5059,61.662 79.4022,61.319 C78.6328047,65.9296047 76.430332,68.3391493 76.1267552,68.6529227 L76.0919,68.6882 C76.3344,72.3379 78.4186,75.1211 78.4186,75.1211 C76.4802,79.3617 75.9461,85.2451 75.9461,85.2451 C73.3315,86.4761 70.8126,85.2576 70.8126,85.2576 C74.6911,80.8143 74.3967,75.2563 74.3967,75.2563 C66.6875,67.0247 68.7315,57.7606 71.7156,54.4086 L71.7156,54.4086 L71.6920471,54.4252676 C71.529941,54.5419694 70.5603087,55.2718087 69.6973,56.6243 C68.7542,58.1029 68.2927,59.885 68.2927,59.885 C68.2927,59.885 67.8951,58.0178 66.5952,56.7931 C64.7543,55.0573 63.5103,54.4331 63.5103,54.4331 C54.8366,49.8025 54.625,44.0805 54.625,44.0805 C59.5642,46.3931 61.9493,45.7323 61.9493,45.7323 C57.2677,44.6673 55.7183,42.6964 54.1495,41.4412 C53.5944,40.9104 53.1563,40.5467 53.1563,40.5467 C49.5615,44.7544 50.4604,49.4031 50.4604,49.4031 C50.6542,52.7703 46.7881,52.8598 46.7881,52.8598 C46.7881,40.6265 52.5384,35.8026 52.5384,35.8026 C53.3216,36.5239 54.2565,37.3292 54.979,37.9378 C55.8185,35.4903 57.4221,33.1259 60.0027,31.0281 C60.541,30.59 61.0319,30.2293 61.4179,29.8369 C61.574,29.6564 61.7253,29.4752 61.9098,29.285 C63.6931,27.0641 63.0176,25.1619 62.9864,25.0748 C63.2049,26.8123 62.2876,28.4728 60.19,29.5208 C60.19,29.5208 60.164934,29.5325951 60.1180498,29.5554922 L59.9961525,29.6158834 C59.2259896,30.0022622 56.3573056,31.5247306 54.9735,33.4184 C54.9735,33.4184 53.9223,33.5962 52.9604,33.0702 C53.9682708,32.6566333 54.9953198,31.7122839 55.3795125,31.3367548 L55.5108117,31.2057446 C55.5281465,31.188009 55.5372,31.1785 55.5372,31.1785 C53.8654,30.3593 52.1394,32.694 52.1394,32.694 C51.4433,31.9351 50.2271,30.8452 50.2271,30.8452 C50.2271,30.8452 51.949,27.3587 54.1738,24.8092 C56.399,22.2567 57.7717,20.5724 58.5762,19.6616 C59.9444743,18.1172943 58.0847748,16.1644136 57.8677699,15.9462698 L57.8475,15.9262 C60.8226,16.5683 62.3387,18.3332 62.3387,18.3332 C63.9705519,17.9150519 64.5217281,16.120189 64.5944299,15.8565778 L64.603,15.8242 C65.1516,17.7439 64.8579,20.0244 64.8579,20.0244 C64.8579,20.0244 64.880171,20.0323877 64.9218947,20.0495808 L64.9987176,20.0824267 C65.7697349,20.4228886 69.4739737,22.3587789 70.2702,28.414 L70.2702,28.414 L72.2855,17.7716 L73.8341,14.2046 Z M60.3563,55.1136 C64.6352,56.9891 66.2129,59.0064 67.884,60.9657 C67.508,63.2725 67.8956,65.7441 68.2871,67.525 L68.2871,67.525 C64.1297841,68.2486937 68.2226226,73.9674927 68.7591032,74.6907874 L68.800941,74.7467325 C68.8104937,74.7593811 68.8155,74.7659 68.8155,74.7659 C63.718975,77.8596375 61.6305141,81.5101375 61.188032,82.3744229 L61.1419844,82.4661011 C61.1229812,82.5047503 61.1099395,82.5324441 61.1025466,82.5484152 L61.0952,82.5645 C59.0860242,83.3819606 56.3251682,82.8278121 55.9978989,82.75764 L55.9658,82.7506 C57.0102,78.7106 64.5375,74.0734 64.5375,74.0734 C60.0896,70.1914 58.0566,64.6989 58.0566,64.6989 C59.15,62.8857 60.1051,60.5449 60.2339,57.7359 L60.2339,57.7359 Z M47.334,35.5888 C48.1226,36.4634 48.9244,37.1871 49.5413,37.7047 C48.9469,38.6324 48.2861,39.8558 47.6767,41.4085 C46.9282,40.6067 46.5176,39.7909 46.5176,39.7909 C43.117,42.2942 42.6408,45.9644 42.6408,45.9644 C41.3016,47.9422 38.5273,48.6054 38.5273,48.6054 C39.5481,38.703 47.334,35.5888 47.334,35.5888 Z M33.4239,16.064 L33.7433,16.4333 L33.7439435,44.4435614 C33.7587357,46.2141362 34.0490529,46.2285324 36.6908,46.718 L36.6908,46.718 L36.6908,48.0067 L28.0715,48.0067 L27.9371,47.6848 L27.9371,45.7519 C25.6653,47.6382 23.489,48.6053 21.6735,48.6053 C16.046,48.6053 12.8271,43.9575 12.8271,37.1891 C12.8271,33.0935 14.0512,30.1033 16.0011,28.0315 C17.8625,26.0979 20.7205,24.9929 24.2149,24.9929 C25.6207,24.9929 26.8914,25.1795 27.9371,25.5449 L27.9371,25.5449 L27.889,21.0359 C27.889,19.2397 27.6626,19.0118 26.8914,18.8712 L26.8914,18.8712 L25.2598,18.55 L25.2598,17.2609 L33.4239,16.064 Z M24.2149,26.6506 C21.2207,26.6506 19.0419,29.7804 19.0419,36.4548 C19.0419,42.3479 20.9027,45.7067 23.986,45.7067 C25.9813,45.7067 27.1634,44.7377 27.6626,43.0819 C27.889,42.3903 27.9371,41.7012 27.9371,40.9655 L27.9371,40.9655 L27.9367346,31.3549892 C27.933446,30.537899 27.90056,29.61026 27.5717,28.9061 C27.0266,27.6167 25.9367,26.6506 24.2149,26.6506 Z M78.6871,17.9236 L79.949,19.8079 L83.1415,19.1689 C83.1415,19.1689 81.8658,20.6377 82.5269,22.8052 C82.569,22.9186 82.6047,23.0381 82.6418,23.149 C82.6418,23.149 82.827,23.4587 83.303,24.8986 C83.4734529,25.4181412 83.4982969,26.3042194 83.5005513,26.6924338 L83.5004358,26.8331109 C83.5001612,26.8661211 83.4998,26.8842 83.4998,26.8842 L83.4998,26.8842 L82.3283,26.5932 C81.6343,28.124 80.2731,29.1434 78.755,29.0776 C76.6393,28.9828 75.3487,27.0796 75.4742,24.5077 C75.5039,23.9052 75.6148,23.2975 75.7908,22.7232 C76.2032,20.2168 75.2402,18.504 75.2402,18.504 L75.2402,18.504 L77.2231,19.7049 L78.6871,17.9236 Z" fill="#FFFFFF"></path>
</svg>