<?xml version="1.0" encoding="UTF-8"?>
<svg id="Layer_1" xmlns="http://www.w3.org/2000/svg" viewBox="0 0 41.53 41.53">
  <defs>
    <style>
      .cls-1 {
        fill: #fff;
      }
    </style>
  </defs>
  <path class="cls-1" d="M13.48,4.87c-.63-.25-1.44-.36-2.39-.36h-6.45v1.36h.95c.38,0,.6.23.6.61v1.73h0v4.54c0,.38-.22.62-.6.62h-.94v1.35h6.06v-1.35h-1.03c-.14,0-.25-.04-.34-.09-.17-.1-.26-.27-.26-.52v-2.43h1.69c1.05,0,1.92-.11,2.6-.36.82-.3,1.36-.81,1.59-1.57.09-.29.14-.61.14-.98,0-1.31-.58-2.11-1.62-2.53ZM9.09,5.86h1.57c.86,0,1.55.6,1.55,1.55s-.66,1.48-1.66,1.53h0s-.1,0-.14,0h-1.32v-3.09Z"/>
  <path class="cls-1" d="M7.06,31.56c0-.11,0-.22,0-.33,0-.57.04-1.07.12-1.52h0c.3-1.68,1.16-2.45,2.51-2.45,1.74,0,2.6,1.34,2.6,2.92h1.43v-4.28h-1.38l-.31.96c-.68-.65-2.31-1.03-3.08-1.03-.62,0-1.21.1-1.75.27-.5.16-.95.39-1.36.68-.98.7-1.68,1.76-1.97,3.08h0c-.09.43-.15.88-.15,1.36h0c0,1.16.23,2.13.65,2.91.89,1.67,2.62,2.51,4.78,2.51.41,0,.79-.03,1.14-.09,2.15-.34,3.39-1.69,3.43-4.11h-1.43c0,1.43-.86,2.77-2.48,2.77-2.05,0-2.7-1.42-2.75-3.66Z"/>
  <path class="cls-1" d="M8.4,15.21h-3.74v3.89h1.43c0-1.85.57-2.54,2.68-2.54h1.65l-1.43,1.8-1.4,1.77h0l-3.09,3.88v1.4h9.23v-2.21h0v-1.96h-1.43c0,2.06-.55,2.82-2.68,2.82h-1.79l4.76-5.99.97-1.22.2-.25v-1.39h-5.35Z"/>
  <g>
    <path class="cls-1" d="M17.47,12.83s.68.2,2.01,1.7c.34-.58.78-1.15,1.35-1.64-.79-.45-1.38-1.16-1.63-2.97,0,0-1.75-1.56-3.57-1.4,0,0,.77,1.84.31,4.26l1.52.05Z"/>
    <path class="cls-1" d="M36.18,31.97h0s-1.66-.08-2.88-1.02c0,0,.43-1.37.06-2.96.43.12.92.21,1.45.21.88,0,1.83-.26,2.56-1.11,1.47-1.71.04-3.38-1.64-5-.63-.6-1.27-1.23-1.83-1.89-.57-.68-1-1.32-1.3-1.91-1.04-2.7,1.12-3.41,2.64-3.58,1.66-.19,2.94-1.03,2.97-2.31.04-1.29-1.1-1.42-1.1-1.42.53.56.36,1.75-1.53,1.48-1.54-.22-2.97.34-3.71,1.63-.46.79-.62,1.53-.61,2.33,0,.21,0,.42.03.65v.02h0c.16,1.08.8,2.29,1.95,3.66.59.7,1.25,1.34,1.89,1.96,1.81,1.75,2.49,2.78,1.59,3.84-1.07,1.24-2.87.76-3.71.44-.18-.4-.43-.8-.76-1.18-1.97-2.27-3.94-1.29-3.94-4.66,0-3.14,2.03-3.27,2.71-7.43.05-.29.11-.76.16-1.13.41.05.72-.02.72-.02-.42-1-.23-1.67-.22-3.33,0-1.66-1.23-2.36-1.23-2.36,1.05-.34,1.2-1.96,1.2-1.96-1.41-.31-2.57.44-2.57.44.31-.61-.11-1.27-.11-1.27-.53.49-1.37.5-2.21.49-1.03-.15-2.58-.13-3.1,1.16-.17.46-1.75.54-2.67,1.39,0,0,.02.85,1.29,1.92,0,0,1.56-1.4,2.78-.99.56.21.67.56.69.73-.21-.03-.51-.03-.91.04-.94.16-1.56.73-2.62.91-1.06.18-1.34-.79-.7-1.15,0,0-.89-.28-1.55.43-.66.71-.07,2.02,1.74,1.7,1.82-.32,2.54-1.59,3.96-1.5-.2.55-.77,1.27-2.43,1.23,0,0,.3.79,1.47,1.2,0,0,.06-1.1,2.31-.85,0,0,.07.71-1.05,1.08-.71.23-2.01.38-3.11.83-2.56,1.03-3.33,3.91-3.26,4.98,0,0,.3-.42.69-.45,0,0-.06,1.55,1.01,3.21-.61,1.12-1.71,2.38-3.68,2.75,0,0-.92,1.29.02,2.95,0,0,1.03-.68,2.76-1.19l-.12-.97s2.5-2.66,4.73-2.4c-.61.16-1.14.54-1.61,1,2.07,1.83,3.35,1.42,4.38,3.33.89,1.66-.79,3.24.44,5.38.81,1.41,2.77,2.21,6.28,2.19h0c.07,0,.13,0,.2,0,0,0,1.19.12,1.76,1.09,0,0-.42.78-3.06.43-2.01-.26-2.31.52-1.68,1.47h6.92s-.31-2.03-2.44-4.49Z"/>
    <path class="cls-1" d="M25.79,25.06c-2.2,1.97-4.93,1.59-4.93,1.59-3.12,2.49-1.95,4.66.7,5.86,2.17.98,2.11,1.99,2.11,1.99,0,0-.41.88-2.44.58-3.02-.45-3.41.4-2.9,1.38h6.85s.91-3.59-1.43-5.94c1.55-.24,2.51-1.02,3.13-1.88.15-.83.32-1.61-.11-2.41-.3-.55-.61-.9-.96-1.18Z"/>
  </g>
</svg>