<?xml version="1.0" encoding="UTF-8"?>
<svg xmlns="http://www.w3.org/2000/svg" version="1.1" viewBox="0 0 41.5 41.5">
  <defs>
    <style>
      .cls-1 {
        fill: #fff;
      }
    </style>
  </defs>
  <!-- Generator: Adobe Illustrator 28.7.1, SVG Export Plug-In . SVG Version: 1.2.0 Build 142)  -->
  <g>
    <g id="Laag_1">
      <g id="Layer_1">
        <path class="cls-1" d="M22.7,28c0-.3.1-.7.3-1,0-.2.2-.3.3-.6,0,0-1.3-.6-3.2-.6,0,1.1,0,2.5.5,4,0,0-1.5-.1-4.6.2,0,0-1.7,1.7-1.5,4.2,0,0,1.9-.2,3-.6,0,0-.2-1.3,0-2.2,0,0,2.2-.5,5.4.3,0,0-.5-2.1-.2-3.8h0Z"/>
        <path class="cls-1" d="M10.8,14.8s.2,1.6,1.4,3c.2-1.1.7-2.2,1.4-3-.7-.7-1.6-1.6-2.2-2.4,0,0-5.9,1.1-6.2,6.2,0,0,1.3.2,2.9-1,0,0-.8-2.2,2.7-2.9h0Z"/>
        <path class="cls-1" d="M35,21.3c1-1.1,1.4-3.2-.3-4.6-1.4-1.1-2.4-1.7-2.7-2.9s.9-1.4.9-1.4c-1.1-.5-2.3,0-2.5,1.5-.2,1.6,1.1,2.6,1.3,2.7-.9-.6-1.6-1.1-1.8-1.7-1.3-2.7,2.7-3.9,3.2-6.8s-2.3-4.2-3.5-3.1.5,2.3.5,2.3c-.8-1.4,1.1-1.6,1.4-.7.3,1.1-1,3.3-3.4,5.1s-.7,4.1-.7,4.1c-.9,0-1.4-.7-1.4-.7-.2,2.3,1,3,3.3,3.6s2.9,1,2.9,1c-.9,0-1.6.7-1.6.7,1.5.1,3.4,1.5,2.5,2.6s-1,.5-1.5.1c-1-4.1-6.3-4.4-6.3-4.4-.9-1.4-2.1-2.1-2.1-2.1C28.5,4.9,17.4,2,17.4,2c.2.6.3,1,.3,1.4-.5-.2-1-.2-1.6-.1-1.5.2-2.4,1.7-2.2,3.2,0-.8.7-1.6,1.6-1.7.5,0,.8,0,1.3.1-2.5,2.9-2.9,7-2.9,7,0,0,.9.6,1.6,1,0,0,.8-1.3,2.1-1.3,0,0-1.1.3-1.3,1.1,0,0,1,.5,1.7-.6.9-1.3.7-2.7,1.8-3.2,0,1.3-.7,3.4-2.7,4.8-1.8,1.1-4,2.9-4,5.7-2.5.3-3.5-.2-3.5-.2-3.4,5.5,1.6,11.5,1.6,11.5,2.1-1,1.5-3.1,1.5-3.1-3.6-2.6-1.7-5.7-1.7-5.7,4,2.7,7.2.2,7.3,0,0,.2-.8,1.8-2.7,2.6,1.6.9,3.8.8,5.1.7,2.2-.2,3.8,1.3,3.8,1.3-2.5,3.8,3,6.3,3,6.3-3.1,2.3-4.9,5-4.8,6.4,1.7.6,4-.2,4-.2.2-.5.3-1,.6-1.5.1.2.3.5.3.9,0,0,.6-.8.5-2.5,1.3-2.2,2.4-3.6,2.4-3.6-.7-1.3-.9-2.5-1-3.2,1.1-.9,2.3-2.5,2.3-4.3.5,0,.8.2,1,.6,1,1.5,1.8,1.1,1.8,1.1-1-1.1-.7-1.7-.7-1.7.6.2,1.5-.1,1.5-1.4s.9-1.7.9-1.7c-.7-.2-1.1,0-1.1,0h0v-.3Z"/>
      </g>
    </g>
  </g>
</svg>